<svg xmlns="http://www.w3.org/2000/svg" viewBox="0 0 512 512" width="512" height="512" role="img" aria-label="Camp Prep AI"><circle cx="256" cy="256" r="256" fill="#FFFFFF"/><g transform="translate(256 256) scale(1.06) translate(-256 -256)"><defs><clipPath id="ic"><circle cx="256" cy="256" r="213"/></clipPath></defs><g fill="none" stroke="#8D93BC" stroke-linejoin="miter" stroke-miterlimit="10"><path d="M106 120V226Q107 262 132 292" stroke-width="16"/><path d="M406 120V226Q405 262 380 292" stroke-width="16"/><path d="M138 270V104Q206 96 256 150Q306 96 374 104V270" stroke-width="18"/></g><path d="M174 99Q256 30 338 99Q256 82 174 99Z" fill="#8D93BC"/><path d="M306 175C309.68 194.32 309.68 194.32 329 198C309.68 201.68 309.68 201.68 306 221C302.32 201.68 302.32 201.68 283 198C302.32 194.32 302.32 194.32 306 175Z" fill="#FF9100"/><path d="M340 148C341.92 158.08 341.92 158.08 352 160C341.92 161.92 341.92 161.92 340 172C338.08 161.92 338.08 161.92 328 160C338.08 158.08 338.08 158.08 340 148Z" fill="#FF9100"/><g clip-path="url(#ic)" stroke="#FFFFFF" stroke-width="9" stroke-linejoin="miter"><path d="M148 238L-140 612L300 600Z" fill="#2F39A9"/><path d="M148 238L300 600L164 600Z" fill="#121D8A" stroke="none"/><path d="M362 224L640 586L180 600Z" fill="#2F39A9"/><path d="M362 224L640 586L394 600Z" fill="#121D8A" stroke="none"/><path d="M256 170L-50 638L562 638Z" fill="#1B2CC1"/><path d="M256 170L562 638L286 638Z" fill="#121D8A" stroke="none"/></g><circle cx="256" cy="256" r="225" fill="none" stroke="#1B2CC1" stroke-width="20"/></g></svg>
